<svg data-v-0dd9719b="" version="1.0" xmlns="http://www.w3.org/2000/svg" xmlns:xlink="http://www.w3.org/1999/xlink" width="100%" height="100%" viewBox="0 0 340.000000 250.000000" preserveAspectRatio="xMidYMid meet" color-interpolation-filters="sRGB" style="margin: auto;"> <rect data-v-0dd9719b="" x="0" y="0" width="100%" height="100%" fill="#fff" fill-opacity="1" class="background"></rect> <rect data-v-0dd9719b="" x="0" y="0" width="100%" height="100%" fill="url(#watermark)" fill-opacity="1" class="watermarklayer"></rect> <g data-v-0dd9719b="" fill="#333" class="icon-text-wrapper icon-svg-group iconsvg" transform="translate(48.69999694824219,91.1567611694336)"><g class="iconsvg-imagesvg" transform="translate(0,0)"><g><rect fill="#333" fill-opacity="0" stroke-width="2" x="0" y="0" width="60.00000000000001" height="67.68647624204685" class="image-rect"></rect> <svg x="0" y="0" width="60.00000000000001" height="67.68647624204685" filtersec="colorsb8218396582" class="image-svg-svg primary" style="overflow: visible;"><svg xmlns="http://www.w3.org/2000/svg" viewBox="-0.001999814063310623 -0.0007581710815429688 96.78150177001953 109.17969512939453"><title>资源 152</title><path d="M82.17 53.54h-6a2.45 2.45 0 0 1-2.86-2.39 29.47 29.47 0 0 0-2.95-9c-1-2-2.33-2.84-4.62-2.28-1.76.43-3.62.51-5.42.78s-2.54-.29-1.48-2.11c3.63-6.26 7.28-12.51 10.85-18.81.88-1.55 1.8-1.76 3.16-.68 2.74 2.17 5.6 4.19 7.73 7 .92 1.23 1.59 2 2.88.09 1.86-2.7 5.74-3.53 8.77-2.29a7.44 7.44 0 0 1 4.48 7.87 7.14 7.14 0 0 1-6.2 6.26c-1.85.24-2.19.71-1.54 2.48a35 35 0 0 1 2.16 9.71c.2 2.82-.22 3.24-3 3.29-1.97.11-3.96.08-5.96.08z" fill="#ed2d24"></path><path d="M78.09 55.59c3.42 0 6.84.06 10.25 0 2.22 0 3 1 2.79 3a38.1 38.1 0 0 1-2.26 10c-.66 1.71-.3 2.32 1.61 2.48a6.68 6.68 0 0 1 6.1 5.69 7.33 7.33 0 0 1-4 8.11 6.68 6.68 0 0 1-8.41-1.59c-1.74-2.26-2.66-1.51-4.1.12a39.72 39.72 0 0 1-7 6.38c-1.36 1-2.4.86-3.28-.67-2.23-3.9-4.47-7.8-6.78-11.66-.71-1.17-.51-1.87.54-2.72a28.86 28.86 0 0 0 6.75-7.64 3.2 3.2 0 0 0-.25-4.09c-1.32-1.61-2.6-3.25-3.82-4.94s-1-2.35 1.12-2.4c3.58-.09 7.16 0 10.74 0z" fill="#f7941d"></path><path d="M41 101.61a3.73 3.73 0 0 1 .25-1.6c1.7-2.87-.07-3.26-2.33-3.63a40.32 40.32 0 0 1-9-3c-1.47-.6-1.91-1.39-1-2.86 2.22-3.72 4.4-7.46 6.51-11.23.84-1.5 1.84-2 3.47-1.28a24.77 24.77 0 0 0 9 1.68c2.15.07 3.65-.51 4.32-2.8a50 50 0 0 1 2.23-5.56c.51-1.16 1.23-1.33 1.94-.12l11.18 19.27c.85 1.46.24 2.3-1.12 3A34.63 34.63 0 0 1 57 96.52c-2.05.34-2.65.87-1.77 3 1.16 2.88.3 5.6-2 7.7a6.88 6.88 0 0 1-7.91 1.22 7 7 0 0 1-4.32-6.83z" fill="#2bb17a"></path><path d="M18.63 53.17c-3.41 0-6.83-.11-10.24 0-2.42.1-3.09-1-2.83-3.16a40.8 40.8 0 0 1 2.19-9.71c.51-1.36.51-2-1.28-2.29-3.61-.5-6.08-3-6.41-6-.4-3.7 1.15-6.62 4.23-8a7.33 7.33 0 0 1 8.89 2.48c1.1 1.41 1.76 1.14 2.63 0a38.14 38.14 0 0 1 7.44-7c1.75-1.29 2.75-1.39 3.84.7 1.92 3.59 4 7.1 6.13 10.59 1 1.63 1 2.77-.73 4a24.79 24.79 0 0 0-6.4 7.58 2.73 2.73 0 0 0 .31 3.6c1.44 1.72 2.79 3.52 4.18 5.28 1.07 1.34.62 1.93-1 1.94h-11z" fill="#7233d6"></path><path d="M48.51 0a7 7 0 0 1 6.59 9.59c-.82 2.14-.14 2.62 1.7 2.88 3.33.47 6.39 1.82 9.49 3 1.72.68 2.12 1.65 1.16 3.26-2.21 3.73-4.4 7.46-6.52 11.23-.78 1.39-1.67 1.57-3.08 1a27.54 27.54 0 0 0-10-1.9 2.91 2.91 0 0 0-3.21 2.15c-.71 2-1.59 4-2.4 6-.56 1.37-1.23 1.82-2.14.25-3.68-6.33-7.33-12.68-11-19-1-1.63-.31-2.39 1.19-3a42.73 42.73 0 0 1 10-3.11c1.59-.24 2-.74 1.37-2.47C39.65 4.71 43.07-.07 48.51 0z" fill="#f465d2"></path><path d="M14.47 55.63h5.74c1.91 0 2.71.75 3 2.61a24.82 24.82 0 0 0 3.33 9.34 3.2 3.2 0 0 0 3.9 1.73c2.12-.42 4.28-.57 6.43-.84 1.18-.14 1.61.22.95 1.38L26.6 89.32c-.82 1.44-1.8 1.08-2.9.32A42.74 42.74 0 0 1 15.48 82c-.91-1.06-1.33-1.13-2.17.09C11.1 85.33 8 86.28 4.63 85 1.51 83.78-.2 80.8.12 77.17a7 7 0 0 1 6.35-6.06c1.89-.24 2-1 1.41-2.44A42.48 42.48 0 0 1 5.62 59c-.3-2.24.63-3.32 2.86-3.32h6z" fill="#35bee8"></path></svg></svg> <!----></g></g> <g transform="translate(67,5.621988296508789)"><g data-gra="path-name" fill-rule="" class="tp-name iconsvg-namesvg" transform="translate(0,0)"><g transform="scale(1)"><g><path d="M18.81-35.33L18.81-35.33Q23.73-35.33 23.91-34.45L23.91-34.45Q23.91-34.1 23.73-33.75L23.73-33.75Q23.2-32.87 23.2-31.82L23.2-31.82 23.2-22.15 30.23-22.15Q34.45-22.15 39.02-22.5L39.02-22.5 39.02-18.46Q36.21-18.63 30.23-18.63L30.23-18.63 23.2-18.63 23.2-1.05 34.8-1.05Q40.96-1.05 42.89-1.23L42.89-1.23 42.89 2.46Q39.55 2.11 34.98 2.11L34.98 2.11 9.14 2.11Q5.63 2.11 2.11 2.46L2.11 2.46 2.11-1.41Q6.33-1.05 9.32-1.05L9.32-1.05 19.16-1.05 19.16-31.11Q19.16-33.93 18.81-35.33ZM65.57-36.74L65.57-36.74Q70.31-35.86 69.96-35.16L69.96-35.16Q69.96-34.98 69.61-34.63L69.61-34.63Q68.38-33.4 67.15-31.46L67.15-31.46 79.1-31.46Q79.98-31.46 82.97-31.64L82.97-31.64Q85.78-31.64 86.66-31.64L86.66-31.64 86.66-28.3Q84.73-28.48 79.1-28.48L79.1-28.48 65.39-28.48Q65.04-27.95 64.34-27.25L64.34-27.25Q63.98-26.72 63.11-25.31L63.11-25.31Q65.57-24.96 68.55-24.96L68.55-24.96 75.23-24.96Q80.33-25.14 83.14-25.31L83.14-25.31Q83.14-24.79 82.97-22.5L82.97-22.5Q82.79-20.21 82.62-19.51L82.62-19.51 82.44-15.12Q85.25-15.12 87.71-15.29L87.71-15.29 87.71-12.13Q86.31-12.3 82.44-12.3L82.44-12.3 82.09-4.57Q83.5-4.57 86.13-4.75L86.13-4.75 86.13-1.76Q85.43-1.76 83.67-1.93L83.67-1.93Q82.44-1.93 82.09-1.93L82.09-1.93Q82.09 2.29 80.68 3.16L80.68 3.16Q78.05 4.39 74.18 4.75L74.18 4.75Q74.18 2.46 72.42 0.53L72.42 0.53Q78.93 1.76 78.75-1.93L78.75-1.93 69.79-1.93Q63.46-1.76 60.64-1.58L60.64-1.58Q61.52-6.86 62.23-12.3L62.23-12.3Q58.01-12.3 58.01-12.13L58.01-12.13 58.01-15.29Q58.01-15.29 62.58-15.12L62.58-15.12Q63.28-22.68 62.93-24.96L62.93-24.96Q60.82-22.15 59.77-20.92L59.77-20.92Q58.54-22.15 56.25-22.68L56.25-22.68Q62.23-28.65 65.57-36.74ZM49.39-32.34L52.21-35.16Q55.2-33.75 59.24-30.06L59.24-30.06 56.43-26.89Q53.61-30.06 49.39-32.34L49.39-32.34ZM46.58-21.62L48.87-24.79Q52.73-23.2 57.13-20.21L57.13-20.21 54.67-16.52Q52.03-18.98 46.58-21.62L46.58-21.62ZM79.28-21.97L66.09-21.97 65.74-15.12 79.1-15.12 79.28-21.97ZM69.79-20.39L72.6-21.45Q74.18-19.16 74.88-16.7L74.88-16.7 71.72-15.64Q71.19-17.93 69.79-20.39L69.79-20.39ZM53.09-14.77L53.09-14.77 56.6-12.66Q55.2-6.33 52.21 3.69L52.21 3.69 47.99 0.7Q50.98-5.1 53.09-14.77ZM65.57-12.48L64.69-4.57 78.93-4.57 79.1-12.48 65.57-12.48ZM68.91-10.55L71.89-11.43Q72.07-11.07 72.42-10.37L72.42-10.37Q74.18-7.56 74.53-6.5L74.53-6.5 71.02-5.1Q70.49-7.91 68.91-10.55L68.91-10.55ZM94.22-32.7L97.03-35.68Q100.55-33.4 104.59-30.06L104.59-30.06 101.78-26.89Q98.26-30.06 94.22-32.7L94.22-32.7ZM128.32-34.63L128.32-34.63Q124.98-28.13 119.36-23.03L119.36-23.03Q124.98-20.92 132.71-20.74L132.71-20.74Q131.13-18.98 130.25-16.52L130.25-16.52Q119.18-19.16 116.37-21.09L116.37-21.09Q115.84-20.92 115.49-20.74L115.49-20.74Q111.8-18.63 106.88-17.23L106.88-17.23Q105.64-16.88 104.24-16.35L104.24-16.35Q103.18-18.11 100.9-19.69L100.9-19.69Q106.52-20.57 113.2-23.03L113.2-23.03Q110.04-25.49 107.23-29.53L107.23-29.53 109.34-31.11Q107.93-30.94 106.52-30.76L106.52-30.76Q105.82-30.76 105.64-30.76L105.64-30.76 105.64-34.8Q105.82-34.8 106.17-34.8L106.17-34.8Q108.28-34.28 111.8-34.28L111.8-34.28 123.22-34.28Q126.04-34.28 128.32-34.63ZM91.58-22.5L93.69-25.66Q97.73-24.08 101.6-21.09L101.6-21.09 99.14-17.75Q95.63-20.57 91.58-22.5L91.58-22.5ZM114.08-18.63L114.08-18.63Q116.37-18.63 118.48-18.28L118.48-18.28Q119.18-18.11 118.65-17.23L118.65-17.23Q118.13-16.35 118.13-15.82L118.13-15.82 118.13-13.71 124.8-13.71Q127.09-13.71 128.14-14.06L128.14-14.06 128.14-10.37Q127.09-10.72 124.8-10.72L124.8-10.72 118.3-10.72 118.3-6.5 126.04-6.5Q128.32-6.5 130.25-6.86L130.25-6.86 130.25-3.16Q128.67-3.52 126.21-3.52L126.21-3.52 118.3-3.52 118.3 0Q118.3 2.99 118.65 4.22L118.65 4.22 114.08 4.22Q114.43 3.16 114.43 0.35L114.43 0.35 114.43-3.52 107.4-3.52Q105.47-3.69 103.01-3.16L103.01-3.16 103.01-6.86Q105.29-6.5 107.4-6.5L107.4-6.5 114.43-6.5 114.43-10.72 109.69-10.72Q106.7-10.72 105.29-10.37L105.29-10.37 105.29-14.06Q106.88-13.71 109.69-13.71L109.69-13.71 114.43-13.71Q114.61-15.82 114.08-18.63ZM97.91-15.47L97.91-15.47Q99.32-13.89 101.43-13.18L101.43-13.18Q99.14-6.68 96.86 2.81L96.86 2.81Q94.75 1.41 92.46 0.35L92.46 0.35Q95.98-6.33 97.91-15.47ZM122.34-31.11L110.39-31.11Q113.03-26.89 116.19-24.61L116.19-24.61Q119.53-26.89 122.34-31.11L122.34-31.11ZM143.61-36.39L143.61-36.39Q148.18-36.39 148.54-35.86L148.54-35.86Q148.54-35.68 148.36-35.51L148.36-35.51Q147.13-34.1 147.13-31.82L147.13-31.82 147.13-27.07Q151.35-27.07 152.75-27.42L152.75-27.42 152.75-23.91Q151.52-24.08 147.13-24.08L147.13-24.08 147.13-18.11 149.94-19.34Q152.93-13.71 153.63-12.48L153.63-12.48 150.12-10.9Q148.89-15.29 147.13-17.23L147.13-17.23 147.13-1.76Q147.13 2.81 147.48 4.22L147.48 4.22 143.61 4.22Q143.96 2.81 143.79-0.35L143.79-0.35Q143.79-1.23 143.79-1.76L143.79-1.76 143.79-16Q142.03-11.78 138.87-5.8L138.87-5.8Q137.64-7.56 136.05-9.32L136.05-9.32Q141.5-14.77 143.79-24.08L143.79-24.08Q138.87-24.08 137.46-23.73L137.46-23.73 137.46-27.25Q140.1-26.89 143.79-26.89L143.79-26.89 143.79-31.46Q143.79-35.16 143.61-36.39ZM176.84-33.57L176.84-33.57 176.84-29.53Q175.61-29.88 169.28-29.88L169.28-29.88 160.31-29.88Q155.74-29.88 153.11-29.53L153.11-29.53 153.11-33.57Q154.69-33.22 160.14-33.05L160.14-33.05 169.1-33.05Q169.98-33.05 171.91-33.22L171.91-33.22Q175.96-33.4 176.84-33.57ZM154.86-26.02L154.86-26.02Q157.68-25.84 161.72-25.84L161.72-25.84 167.34-25.84Q172.27-25.84 174.38-26.02L174.38-26.02Q174.02-24.26 174.02-20.21L174.02-20.21 174.02-11.78Q174.2-6.5 174.38-5.27L174.38-5.27Q173.14-5.45 167.34-5.45L167.34-5.45 163.13-5.45Q158.91-5.63 154.86-5.27L154.86-5.27Q155.04-6.33 155.04-12.3L155.04-12.3 155.04-19.69Q155.04-23.73 154.86-26.02ZM170.51-17.23L170.51-22.85 158.73-22.85 158.73-17.23 170.51-17.23ZM170.51-14.24L158.73-14.24 158.73-8.61 170.51-8.61 170.51-14.24ZM151 1.93L151-1.58Q155.21-1.23 158.38-1.23L158.38-1.23 170.16-1.23Q176.13-1.23 177.71-1.58L177.71-1.58 177.71 1.93Q175.96 1.58 170.16 1.58L170.16 1.58 158.38 1.58Q152.58 1.58 151 1.93L151 1.93Z" transform="translate(-2.109999895095825, 36.7400016784668)"></path></g> <!----> <!----> <!----> <!----> <!----> <!----> <!----></g></g> <g data-gra="path-slogan" fill-rule="" class="tp-slogan iconsvg-slogansvg" fill="#333" transform="translate(31.10417938232422,47.4900016784668)"><!----> <!----> <g transform="scale(1, 1)"><g transform="scale(1)"><path d="M7.17-6.09L7.17-6.09L6.09-6.09Q6-7.73 3.94-7.83L3.94-7.83Q2.02-7.78 2.02-6.33L2.02-6.33Q2.02-5.39 3.05-5.25L3.05-5.25L5.48-4.69Q7.41-4.22 7.41-2.34L7.41-2.34Q7.36 0.05 4.03 0.14L4.03 0.14Q2.20 0.14 1.45-0.61L1.45-0.61Q0.52-1.31 0.56-2.77L0.56-2.77L1.69-2.77Q1.73-0.80 4.03-0.75L4.03-0.75Q6.28-0.80 6.33-2.20L6.33-2.20Q6.52-3.38 4.45-3.75L4.45-3.75L2.67-4.13Q0.84-4.64 0.84-6.19L0.84-6.19Q0.98-8.72 3.84-8.81L3.84-8.81Q7.08-8.81 7.17-6.09ZM10.03-5.06L14.53-5.06L14.53-8.58L15.70-8.58L15.70 0L14.53 0L14.53-3.98L10.03-3.98L10.03 0L8.86 0L8.86-8.58L10.03-8.58L10.03-5.06ZM23.16 0L22.31-2.48L18.84-2.48L17.95 0L16.78 0L20.02-8.58L21.33-8.58L24.42 0L23.16 0ZM20.58-7.31L19.22-3.52L21.89-3.52L20.63-7.31L20.58-7.31ZM26.86-8.58L31.17-1.64L31.17-8.58L32.30-8.58L32.30 0L30.98 0L26.63-6.94L26.58-6.94L26.58 0L25.45 0L25.45-8.58L26.86-8.58ZM40.50-3.61L37.88-3.61L37.88-4.59L41.63-4.59L41.63 0L40.88 0L40.59-1.08Q39.61 0.09 37.78 0.14L37.78 0.14Q36.05 0.14 35.11-0.75L35.11-0.75Q33.70-2.06 33.75-4.36L33.75-4.36Q34.08-8.63 37.83-8.81L37.83-8.81Q41.02-8.63 41.48-6L41.48-6L40.36-6Q39.89-7.78 37.78-7.83L37.78-7.83Q35.11-7.64 34.97-4.31L34.97-4.31Q34.97-0.75 37.83-0.75L37.83-0.75Q38.86-0.75 39.61-1.31L39.61-1.31Q40.55-2.06 40.50-3.61L40.50-3.61ZM44.58-5.06L49.08-5.06L49.08-8.58L50.25-8.58L50.25 0L49.08 0L49.08-3.98L44.58-3.98L44.58 0L43.41 0L43.41-8.58L44.58-8.58L44.58-5.06ZM57.70 0L56.86-2.48L53.39-2.48L52.50 0L51.33 0L54.56-8.58L55.88-8.58L58.97 0L57.70 0ZM55.13-7.31L53.77-3.52L56.44-3.52L55.17-7.31L55.13-7.31ZM60.19-8.58L61.36-8.58L61.36 0L60.19 0L60.19-8.58ZM67.50-1.03L72.80-1.03L72.80 0L66.05 0L66.05-0.94L71.30-7.59L66.42-7.59L66.42-8.58L72.80-8.58L72.80-7.59L67.50-1.03ZM75.23-1.03L80.39-1.03L80.39 0L74.06 0L74.06-8.58L80.30-8.58L80.30-7.59L75.23-7.59L75.23-4.92L79.92-4.92L79.92-3.89L75.23-3.89L75.23-1.03ZM83.06-5.06L87.56-5.06L87.56-8.58L88.73-8.58L88.73 0L87.56 0L87.56-3.98L83.06-3.98L83.06 0L81.89 0L81.89-8.58L83.06-8.58L83.06-5.06ZM96.19-3.19L96.19-8.58L97.36-8.58L97.36-3.05Q97.22 0.05 93.84 0.14L93.84 0.14Q90.70 0.05 90.56-2.86L90.56-2.86L90.56-8.58L91.73-8.58L91.73-3.19Q91.78-0.84 93.89-0.80L93.89-0.80Q96.19-0.84 96.19-3.19L96.19-3.19ZM104.81 0L103.97-2.48L100.50-2.48L99.61 0L98.44 0L101.67-8.58L102.98-8.58L106.08 0L104.81 0ZM102.23-7.31L100.88-3.52L103.55-3.52L102.28-7.31L102.23-7.31ZM108.52-8.58L112.83-1.64L112.83-8.58L113.95-8.58L113.95 0L112.64 0L108.28-6.94L108.23-6.94L108.23 0L107.11 0L107.11-8.58L108.52-8.58Z" transform="translate(-0.5602678571428572, 8.8125)"></path></g></g></g></g></g><defs v-gra="od"></defs></svg>